<svg xmlns="http://www.w3.org/2000/svg" viewBox="0 0 1149.75 254.74"><defs><style>.cls-1{fill:#edad0c;}.cls-2{fill:#db3d35;}.cls-3{fill:#4082e2;}.cls-4{fill:#359e4d;}</style></defs><title>logo3</title><g id="Layer_2" data-name="Layer 2"><g id="Layer_1-2" data-name="Layer 1"><path class="cls-1" d="M1058.69,254.74c-50.58-.3-89.64-42.79-89.66-97.55,0-55,40.79-98.13,92-97.39,49.92.73,89.54,44.92,88.66,98.89C1148.84,213.46,1109.43,255,1058.69,254.74Zm.54-155.83c-28.65.08-50.6,25.88-50.31,59.13.3,33.61,22.3,58.19,51.57,57.62,27.93-.55,49.25-25.56,49.33-57.89.1-33.29-21.94-58.94-50.59-58.86Z"/><path class="cls-2" d="M878.61,134.42,763.07,184.69c13.81,35.91,47.28,37.67,86,4.76l25.77,18.1c-14.75,32.92-55.82,50.09-94.25,40.08-40.81-10.64-67.87-49.88-65.82-95.47s31.87-81.5,72.47-87.29C828.47,59.09,861.57,83.82,878.61,134.42Zm-46-14.13c-15.15-19.37-31.28-23.81-49.28-15.69-19.5,8.82-29.09,26-26.35,48.58Z"/><path class="cls-3" d="M89.34,247.3,47.4,79.94H46.14q3,42.77,3,66.44V247.3H0V14.94H73.77l42.78,165h1.12l41.93-165h73.91V247.3H182.6V145.42c0-5.29.07-11.18.21-17.64s.78-22.3,1.9-47.52h-1.26l-41.38,167Z"/><path class="cls-2" d="M364.83,245.71l-10.51-23.84h-1.13q-11.07,15.57-22.58,21.29t-29.73,5.73q-22.44,0-35.34-15.26t-12.9-42.91q0-28.77,17.67-42.83t51.19-15.82l26.5-.95v-2.55q0-22.25-19.35-22.25-17.38,0-44.18,13.36l-15.85-41q27.78-16.22,70.13-16.21,30.57,0,47.33,17.16t16.76,48V245.71ZM324.16,205a23.1,23.1,0,0,0,17-7.15q7.08-7.16,7.08-18.6v-14l-12.62.63Q308.6,167,308.59,188.49,308.59,205,324.16,205Z"/><path class="cls-1" d="M524.84,64.05a70.12,70.12,0,0,1,13.61,1.27l3.08.64-4.91,58.64q-6.72-1.91-18.65-1.91-18,0-26.08,9.3t-8.14,26.78V247.3H428.91V67.23h40.82L478.28,96H481a59.82,59.82,0,0,1,19.14-23.12Q512.36,64,524.84,64.05Z"/><path class="cls-3" d="M635,250.47q-39,0-59.11-23.84T555.8,158.14q0-44.82,21.74-69.46t61.85-24.63a104.85,104.85,0,0,1,52,13.67l-16.13,45.93a164.48,164.48,0,0,0-18.37-7.87,52.79,52.79,0,0,0-17.53-2.94q-13.33,0-20.62,11.76t-7.29,33.22q0,43.23,28.19,43.23,24.12,0,46.28-15.9v49.43Q664.77,250.48,635,250.47Z"/><path class="cls-4" d="M954,247.3H899.15V0H954Z"/></g></g></svg>