<svg xmlns="http://www.w3.org/2000/svg" viewBox="0 0 1186.73 391.17"><defs><style>.cls-1{fill:#4082e2;}.cls-2{fill:#db3d35;}.cls-3{fill:#edad0c;}.cls-4{fill:#359e4d;}</style></defs><title>logo_2</title><g id="Layer_2" data-name="Layer 2"><g id="Layer_1-2" data-name="Layer 1"><path class="cls-1" d="M249.54,181.53H154.92V140.26H291.16c19,52.79-13.39,121.51-70.38,149.26C154,322.05,68.83,298.4,26.07,235.45-17.28,171.62-5.68,90.06,54.24,37.28,110.2-12,194.47-12.48,251.68,36.2c1.6,1.36,2.74,3.26,4.59,5.52L229.64,69.17C165.86,32.91,117.4,34.28,78.35,73c-35.15,34.83-42.61,89.9-18.13,133.83,24.3,43.6,73.41,63.76,124.45,51.09C222.57,248.51,248.12,219.73,249.54,181.53Z"/><path class="cls-1" d="M877.62,125.28c10.66-21.24,27.93-8.93,45.08-11.76,0,30.86.26,60-.07,89-.42,36.6,1.52,73.54-2.75,109.72-5.49,46.5-32.49,72-73.85,77.74-45.44,6.27-81.51-13.19-102.6-56.39l35.4-15.4c17.25,29.41,41.79,41.34,74,29,21-8,28.65-27.22,26.18-62.26-21.41,16.84-44.87,22.5-70,16.43-24.4-5.9-43.8-19.71-57.82-40.86a98.73,98.73,0,0,1,11.3-123.45C794.61,103.92,834.72,99.46,877.62,125.28ZM884,206.21c0-33.78-22-58.77-51.69-58.83-30.54-.06-54.53,26.21-54.27,59.44.25,32.71,23.13,57,53.77,57.06C862.76,263.94,884,240.44,884,206.21Z"/><path class="cls-2" d="M411.44,303c-56.39.36-99.72-42.24-99.47-97.81.24-54.13,43.77-97,98.46-97s98.2,43,98.39,97.08C509,260,466.44,302.69,411.44,303Zm53.92-97c.07-33.29-24-58.89-55.27-58.75s-55.07,26-54.68,59.31c.39,32.64,23.45,57.16,54.14,57.56C441,264.6,465.3,239.33,465.36,206.07Z"/><path class="cls-3" d="M620.94,303.17c-55.1-.3-97.66-42.79-97.68-97.55,0-55,44.44-98.13,100.28-97.39,54.38.73,97.55,44.92,96.59,98.89C719.16,261.89,676.22,303.46,620.94,303.17Zm.59-155.83c-31.21.08-55.13,25.88-54.81,59.13.33,33.61,24.29,58.19,56.18,57.62,30.43-.55,53.66-25.56,53.75-57.89C676.75,172.91,652.74,147.26,621.53,147.34Z"/><path class="cls-2" d="M1186.73,181.71l-126.61,52.78c15.14,37.7,51.81,39.55,94.28,5l28.24,19c-16.17,34.56-61.17,52.59-103.29,42.08-44.72-11.17-74.37-52.37-72.12-100.23s34.92-85.57,79.41-91.64C1131.79,102.63,1168.06,128.59,1186.73,181.71Zm-50.42-14.83c-16.6-20.34-34.27-25-54-16.47-21.36,9.26-31.87,27.27-28.87,51Z"/><path class="cls-4" d="M988.07,297H948.39V12.81h39.68Z"/><rect class="cls-1" x="876.73" y="111.91" width="46" height="15"/></g></g></svg>